HIERARCHY
ROOT Hips
{
 OFFSET 0.000000 0.000000 0.000000
 CHANNELS 6 Xposition Yposition Zposition Yrotation Xrotation Zrotation
 JOINT Chest
 {
  OFFSET 0.000000 11.395451 -0.039534
  CHANNELS 3 Yrotation Xrotation Zrotation
  JOINT Chest2
  {
   OFFSET 0.000000 9.398669 0.071813
   CHANNELS 3 Yrotation Xrotation Zrotation
   JOINT Chest3
   {
    OFFSET 0.000000 8.489801 0.000000
    CHANNELS 3 Yrotation Xrotation Zrotation
    JOINT Chest4
    {
     OFFSET 0.000000 8.489801 0.000000
     CHANNELS 3 Yrotation Xrotation Zrotation
     JOINT Neck
     {
      OFFSET 0.000000 12.404889 0.000000
      CHANNELS 3 Yrotation Xrotation Zrotation
      JOINT Head
      {
       OFFSET 0.000000 8.903270 0.092239
       CHANNELS 3 Yrotation Xrotation Zrotation
       End Site
       {
        OFFSET 0.000000 17.592497 0.007158
       }
      }
     }
     JOINT RightCollar
     {
      OFFSET -3.196775 6.966722 0.000000
      CHANNELS 3 Yrotation Xrotation Zrotation
      JOINT RightShoulder
      {
       OFFSET -15.955896 0.000000 0.000000
       CHANNELS 3 Yrotation Xrotation Zrotation
       JOINT RightElbow
       {
        OFFSET -24.792472 0.000000 0.000000
        CHANNELS 3 Yrotation Xrotation Zrotation
        JOINT RightWrist
        {
         OFFSET -20.900115 0.000000 0.025002
         CHANNELS 3 Yrotation Xrotation Zrotation
         End Site
         {
          OFFSET -16.056692 0.000000 0.000000
         }
        }
       }
      }
     }
     JOINT LeftCollar
     {
      OFFSET 3.196775 6.966722 0.000000
      CHANNELS 3 Yrotation Xrotation Zrotation
      JOINT LeftShoulder
      {
       OFFSET 15.955896 0.000000 0.000000
       CHANNELS 3 Yrotation Xrotation Zrotation
       JOINT LeftElbow
       {
        OFFSET 24.792472 0.000000 0.000000
        CHANNELS 3 Yrotation Xrotation Zrotation
        JOINT LeftWrist
        {
         OFFSET 20.900115 0.000000 0.025002
         CHANNELS 3 Yrotation Xrotation Zrotation
         End Site
         {
          OFFSET 16.056692 0.000000 0.000000
         }
        }
       }
      }
     }
    }
   }
  }
 }
 JOINT RightHip
 {
  OFFSET -9.568995 0.193718 0.019767
  CHANNELS 3 Yrotation Xrotation Zrotation
  JOINT RightKnee
  {
   OFFSET 0.000000 -56.649296 0.015402
   CHANNELS 3 Yrotation Xrotation Zrotation
   JOINT RightAnkle
   {
    OFFSET 0.000000 -41.365147 0.021264
    CHANNELS 3 Yrotation Xrotation Zrotation
    JOINT RightToe
    {
     OFFSET 0.000000 -7.465940 17.672538
     CHANNELS 3 Yrotation Xrotation Zrotation
     End Site
     {
      OFFSET 0.000000 -1.736315 7.837145
     }
    }
   }
  }
 }
 JOINT LeftHip
 {
  OFFSET 9.568995 0.193718 0.019767
  CHANNELS 3 Yrotation Xrotation Zrotation
  JOINT LeftKnee
  {
   OFFSET 0.000000 -56.649296 0.015402
   CHANNELS 3 Yrotation Xrotation Zrotation
   JOINT LeftAnkle
   {
    OFFSET 0.000000 -41.365147 0.021264
    CHANNELS 3 Yrotation Xrotation Zrotation
    JOINT LeftToe
    {
     OFFSET 0.000000 -7.465940 17.672538
     CHANNELS 3 Yrotation Xrotation Zrotation
     End Site
     {
      OFFSET 0.000000 -1.736315 7.837145
     }
    }
   }
  }
 }
}
MOTION
Frames: 11
Frame Time: 0.016667
282.114296 106.733401 369.651614 151.152015 -7.368069 0.081320 -4.128999 6.218584 0.303966 -1.836408 2.761041 0.190297 -1.836408 2.761041 0.190297 -1.377899 2.070231 0.150999 -2.321177 14.244669 -0.413222 -4.208082 -9.710823 0.129816 5.930927 0.249578 8.251677 3.265472 -8.202503 77.436115 3.789619 3.373937 2.244978 -4.013044 -4.541667 3.406643 -1.256634 5.902189 -7.200573 -0.824527 -14.273292 -76.508510 -4.390402 11.688412 -5.600878 3.138256 -6.440839 -6.444935 16.593975 11.919758 2.968378 -1.676692 -0.202879 -0.103850 0.619810 -6.417009 -0.416459 0.000000 -0.000000 0.000000 4.952169 13.896966 -0.112898 -0.387034 0.626681 -0.012808 3.795031 -6.004841 -0.987219 -0.008220 -0.980527 1.235150
282.049963 106.722691 369.716214 151.204795 -7.291885 0.049873 -4.127160 6.168839 0.298314 -1.835526 2.738984 0.187323 -1.835526 2.738984 0.187322 -1.377222 2.053698 0.148698 -2.338604 14.257062 -0.407420 -4.242873 -9.687216 0.147141 5.858236 0.315224 8.305143 3.351814 -8.198798 77.446358 3.788164 3.333695 2.226512 -3.995647 -4.539014 3.386863 -1.267679 5.935226 -7.166175 -0.845641 -14.144637 -76.583469 -4.423788 11.672197 -5.582747 3.081340 -6.446910 -6.396750 16.373932 11.759865 2.897752 -1.699505 -0.158204 -0.046439 0.782755 -6.342537 -0.405161 0.000000 0.000000 0.000000 4.903436 13.773482 -0.135406 -0.391186 0.631529 0.040016 3.788691 -6.033894 -0.995969 -0.008039 -0.936566 1.235903
281.985630 106.711981 369.780813 151.257523 -7.215673 0.018502 -4.125355 6.119098 0.292613 -1.834662 2.716930 0.184328 -1.834662 2.716930 0.184327 -1.376558 2.037166 0.146382 -2.356024 14.269469 -0.401625 -4.277641 -9.663574 0.164436 5.785643 0.380971 8.358538 3.438167 -8.195110 77.456561 3.786715 3.293447 2.208061 -3.978257 -4.536363 3.367078 -1.278695 5.968256 -7.131765 -0.866861 -14.015955 -76.658376 -4.457208 11.656020 -5.564637 3.024402 -6.452898 -6.348574 16.154143 11.599780 2.827939 -1.722335 -0.113333 0.010793 0.945669 -6.268002 -0.393763 0.000000 0.000000 0.000000 4.854697 13.650013 -0.157849 -0.395373 0.636386 0.092835 3.782366 -6.062951 -1.004719 -0.007857 -0.892605 1.236644
281.924858 106.703539 369.845405 151.310040 -7.150979 -0.013147 -4.125301 6.076872 0.285812 -1.834560 2.698223 0.180935 -1.834560 2.698223 0.180935 -1.376465 2.023146 0.143783 -2.371404 14.283769 -0.397179 -4.307992 -9.636506 0.178327 5.720859 0.445164 8.409698 3.528949 -8.193371 77.468650 3.793254 3.254691 2.189490 -3.961702 -4.535373 3.350535 -1.287862 6.004515 -7.096988 -0.890783 -13.899994 -76.724131 -4.490550 11.645386 -5.548154 2.973830 -6.455927 -6.307309 15.962460 11.453283 2.769713 -1.747831 -0.058752 0.057780 1.088001 -6.206423 -0.380017 0.000000 0.000000 0.000000 4.806238 13.536722 -0.175009 -0.393358 0.642433 0.140720 3.771691 -6.087778 -1.011527 -0.007589 -0.847079 1.236317
281.869594 106.698803 369.910612 151.365893 -7.101464 -0.046474 -4.129371 6.045665 0.278140 -1.836275 2.684419 0.177307 -1.836275 2.684419 0.177307 -1.377734 2.012803 0.141029 -2.383166 14.298694 -0.395246 -4.330533 -9.608445 0.186054 5.668365 0.508060 8.457278 3.631163 -8.195606 77.484369 3.810184 3.214904 2.167583 -3.946587 -4.537429 3.339433 -1.294457 6.045657 -7.060600 -0.919262 -13.802055 -76.777379 -4.526051 11.644136 -5.535060 2.933225 -6.454285 -6.278094 15.803181 11.324826 2.727545 -1.775279 0.014198 0.087105 1.203123 -6.166070 -0.360995 -0.000000 -0.000000 -0.000000 4.752673 13.435965 -0.184390 -0.378553 0.649667 0.182101 3.753729 -6.105486 -1.016291 -0.007183 -0.798446 1.234580
281.817892 106.696335 369.975812 151.421558 -7.063463 -0.080115 -4.135173 6.021979 0.269401 -1.838742 2.673966 0.173294 -1.838742 2.673966 0.173294 -1.379565 2.004975 0.137999 -2.392877 14.315506 -0.394651 -4.348643 -9.576974 0.190396 5.623684 0.569358 8.502673 3.737819 -8.199823 77.501920 3.835086 3.176628 2.145495 -3.932305 -4.541143 3.331565 -1.299170 6.090025 -7.023836 -0.950384 -13.716848 -76.821506 -4.561426 11.648426 -5.523554 2.899022 -6.449733 -6.255768 15.671816 11.210141 2.696418 -1.805333 0.096712 0.106175 1.297714 -6.138750 -0.339745 -0.000000 -0.000000 0.000000 4.699368 13.345392 -0.188517 -0.357535 0.658064 0.218573 3.731407 -6.118965 -1.019130 -0.006692 -0.748248 1.231780
281.767470 106.694080 370.039131 151.466283 -7.037546 -0.110307 -4.137266 6.002812 0.257919 -1.839528 2.665549 0.168055 -1.839528 2.665549 0.168055 -1.380131 1.998677 0.134048 -2.403204 14.339877 -0.393229 -4.368054 -9.531427 0.196276 5.581069 0.626559 8.547843 3.832340 -8.201918 77.517955 3.868708 3.148965 2.132632 -3.917862 -4.544013 3.323574 -1.302300 6.135901 -6.990062 -0.981051 -13.641235 -76.857532 -4.589774 11.652223 -5.509900 2.866873 -6.444611 -6.231782 15.582951 11.109991 2.672593 -1.842689 0.172072 0.127187 1.371185 -6.112793 -0.322985 0.000000 0.000000 0.000000 4.662731 13.268090 -0.189752 -0.343803 0.668782 0.249928 3.709152 -6.132648 -1.018436 -0.006195 -0.699552 1.227890
281.716945 106.691301 370.100095 151.492641 -7.023230 -0.134445 -4.132595 5.987140 0.242418 -1.837260 2.658724 0.160975 -1.837260 2.658724 0.160975 -1.378398 1.993581 0.128709 -2.414862 14.375253 -0.390250 -4.390306 -9.465363 0.205221 5.538596 0.677879 8.592919 3.910555 -8.201239 77.531848 3.912705 3.135486 2.132708 -3.903631 -4.543538 3.314989 -1.304035 6.182914 -6.960267 -1.010118 -13.574947 -76.884149 -4.610248 11.656323 -5.494289 2.836041 -6.438793 -6.203909 15.553366 11.022137 2.653419 -1.891525 0.237746 0.157600 1.418136 -6.086242 -0.315201 0.000000 0.000000 -0.000000 4.656702 13.203358 -0.188544 -0.344521 0.685073 0.274924 3.686040 -6.149451 -1.012369 -0.005704 -0.653037 1.222471
281.667702 106.688737 370.159178 151.508085 -7.021025 -0.155175 -4.124200 5.975981 0.224186 -1.833302 2.653931 0.152676 -1.833302 2.653931 0.152676 -1.375394 1.990012 0.122454 -2.427104 14.418191 -0.386443 -4.413787 -9.385214 0.215680 5.498162 0.725103 8.637768 3.976622 -8.198422 77.544290 3.965436 3.132605 2.142002 -3.889240 -4.542212 3.306285 -1.304183 6.231433 -6.933461 -1.038670 -13.518246 -76.902677 -4.623701 11.659896 -5.476542 2.807262 -6.432423 -6.174384 15.566207 10.948827 2.641246 -1.947678 0.296266 0.190051 1.443949 -6.061043 -0.311889 0.000000 0.000000 -0.000000 4.667340 13.151871 -0.184505 -0.352505 0.703704 0.294780 3.662981 -6.166452 -1.002761 -0.005209 -0.608024 1.215961
281.621616 106.686550 370.215931 151.524185 -7.032995 -0.176614 -4.115786 5.969394 0.205387 -1.829328 2.651175 0.144166 -1.829328 2.651175 0.144166 -1.372377 1.987971 0.116047 -2.440411 14.464032 -0.381830 -4.439496 -9.299616 0.227947 5.459749 0.771092 8.683946 4.026446 -8.191258 77.553962 4.022706 3.138676 2.158794 -3.872581 -4.545016 3.295517 -1.302496 6.280841 -6.910042 -1.066964 -13.468778 -76.918079 -4.625825 11.654448 -5.452396 2.778368 -6.428244 -6.141368 15.585638 10.897519 2.639940 -2.003366 0.338537 0.214541 1.464200 -6.031363 -0.306249 0.000000 0.000000 0.000000 4.669239 13.118790 -0.178722 -0.359742 0.716131 0.312976 3.647154 -6.179330 -0.993495 -0.004750 -0.565541 1.209650
281.580652 106.684807 370.268630 151.548163 -7.067382 -0.200895 -4.109603 5.970233 0.186175 -1.826336 2.651720 0.135568 -1.826336 2.651720 0.135568 -1.370096 1.988406 0.109588 -2.456045 14.512636 -0.375919 -4.469995 -9.208784 0.243433 5.423309 0.817291 8.732973 4.053403 -8.179556 77.559646 4.086921 3.157117 2.186066 -3.850697 -4.556519 3.279495 -1.298911 6.331505 -6.890842 -1.098750 -13.428000 -76.930462 -4.610513 11.633201 -5.416743 2.746964 -6.428665 -6.101519 15.603004 10.881056 2.656555 -2.060485 0.356507 0.224281 1.482809 -5.993935 -0.294120 -0.000000 -0.000000 0.000000 4.649438 13.114589 -0.170832 -0.363828 0.718482 0.331213 3.642788 -6.186504 -0.986630 -0.004349 -0.526573 1.204095
